<svg version="1.1" id="Layer_1" xmlns="http://www.w3.org/2000/svg" xmlns:xlink="http://www.w3.org/1999/xlink" x="0px" y="0px"
	 width="100%" viewBox="0 0 1365 360" enable-background="new 0 0 1365 360" xml:space="preserve">
<path fill="#FEFEFE" opacity="1.000000" stroke="none" 
	d="
M891.000000,361.000000 
	C594.000061,361.000000 297.500061,361.000000 1.000080,361.000000 
	C1.000053,241.000046 1.000053,121.000099 1.000026,1.000112 
	C455.999878,1.000075 910.999756,1.000075 1365.999756,1.000037 
	C1365.999756,120.999878 1365.999756,240.999756 1365.999878,360.999817 
	C1207.833374,361.000000 1049.666626,361.000000 891.000000,361.000000 
M429.810791,152.269516 
	C419.257690,145.853973 408.704590,139.438416 397.625885,132.703339 
	C402.862000,111.041817 408.383118,88.201286 413.942444,65.202713 
	C394.338135,65.202713 375.227142,65.202713 355.264618,65.202713 
	C355.264618,68.361366 354.989624,71.365501 355.336212,74.296127 
	C355.743134,77.736908 357.712585,81.268135 357.226135,84.491821 
	C355.092529,98.631966 352.187073,112.653854 349.861755,126.768097 
	C349.266449,130.381470 347.865417,132.097885 344.243103,132.904434 
	C332.088074,135.610870 321.011932,140.930176 310.854309,148.045105 
	C300.236145,155.482620 290.995789,164.255173 285.756958,176.478088 
	C277.092010,196.694580 287.321106,214.541183 309.080475,217.194763 
	C311.863281,217.534134 314.661926,217.743790 317.680786,218.035522 
	C317.256012,220.617889 316.861420,223.017075 316.432556,225.624435 
	C323.433044,229.170898 325.442535,235.324127 325.314606,242.641953 
	C325.209747,248.638626 325.238403,254.639175 325.303345,260.636963 
	C325.517609,280.418610 334.472626,294.250122 353.161835,300.633942 
	C363.107330,304.031128 373.827789,306.098053 384.322388,306.740082 
	C402.256073,307.837189 420.289917,307.201691 438.276611,307.553619 
	C456.560730,307.911346 474.468903,305.466644 492.114532,300.915466 
	C508.735229,296.628693 524.899780,291.166809 539.609375,282.003296 
	C542.602051,280.138947 543.885132,278.051025 543.801514,274.391907 
	C543.542664,263.067322 543.713745,251.733047 543.692017,240.402588 
	C543.689697,239.211990 543.515320,238.021729 543.420776,236.831314 
	C541.879517,237.161102 541.368286,238.024689 540.753235,238.806519 
	C523.386230,260.883179 500.085083,273.869568 473.635773,281.389587 
	C447.856812,288.718964 421.366516,286.508209 395.209290,284.340424 
	C381.064697,283.168182 375.258972,274.989075 374.453979,260.700531 
	C374.173187,255.716675 374.309052,250.707977 374.299072,245.710526 
	C374.280273,236.270706 374.293640,226.830811 374.293640,216.998810 
	C366.005463,216.998810 358.207916,216.998810 350.410400,216.998810 
	C342.610687,216.998810 334.810974,216.998810 327.011261,216.998810 
	C357.693481,208.139328 376.631653,187.041489 389.596252,158.777420 
	C406.457031,174.080215 413.011932,194.622025 419.392181,215.462601 
	C434.023254,208.420883 448.146332,201.623642 462.808228,194.567093 
	C457.239746,185.660629 452.087036,177.419205 446.708984,168.817352 
	C460.920319,168.817352 474.789581,168.817352 489.249878,168.817352 
	C489.249878,192.507843 489.249878,216.059784 489.249878,239.653259 
	C504.914917,239.653259 519.988831,239.653259 535.240601,239.653259 
	C535.240601,181.129410 535.240601,122.882881 535.240601,64.535278 
	C517.096924,64.535278 499.232574,64.535278 481.339142,64.535278 
	C480.855164,67.500076 480.430664,70.100731 480.004547,72.710968 
	C492.051453,79.148346 488.649597,90.201752 489.140259,100.742226 
	C468.148132,100.742226 447.601837,100.742226 426.133057,100.742226 
	C428.729370,105.393524 431.348389,109.073639 432.937073,113.154823 
	C435.728149,120.325043 440.247131,123.184082 448.063751,122.154640 
	C453.959991,121.378113 460.040527,122.000992 466.039032,122.000992 
	C473.650604,122.000992 481.262146,122.000992 488.873901,122.000992 
	C488.873901,130.618729 488.873901,138.685333 488.873901,147.259308 
	C468.909912,147.259308 449.231873,147.259308 429.378815,147.259308 
	C430.080322,149.150146 430.591888,150.528976 430.716309,152.268204 
	C430.595490,152.396606 430.474640,152.525024 429.810791,152.269516 
M92.511398,181.890396 
	C91.815628,155.962967 91.119865,130.035553 90.421143,103.997948 
	C72.285873,103.997948 54.701138,103.997948 35.896244,103.997948 
	C36.534615,107.424843 36.056358,111.617882 37.829845,113.080399 
	C42.690208,117.088524 44.744324,121.874077 44.914135,127.798737 
	C45.916306,162.763428 46.989525,197.726654 47.805496,232.695816 
	C48.130493,246.624008 47.858898,260.566101 47.858898,275.107300 
	C35.873035,275.107300 23.226801,275.107300 10.004773,275.107300 
	C13.617636,281.610107 17.026606,287.308044 19.968954,293.237488 
	C21.320658,295.961487 23.039747,296.580109 25.828131,296.570404 
	C51.157005,296.482422 76.488365,296.718018 101.814873,296.457947 
	C124.085258,296.229248 145.372513,291.491486 165.157074,280.919769 
	C168.161392,279.314484 171.042542,277.478699 174.763824,275.288635 
	C174.763824,286.862579 174.763824,297.572784 174.763824,308.338257 
	C189.875305,308.338257 204.422577,308.338257 219.364944,308.338257 
	C219.364944,267.360992 219.364944,226.749329 219.364944,185.840851 
	C221.979279,185.840851 224.193237,185.840851 226.954559,185.840851 
	C226.954559,226.879929 226.954559,267.603973 226.954559,308.353455 
	C242.235580,308.353455 256.966156,308.353455 271.529480,308.353455 
	C271.529480,226.781860 271.529480,145.565292 271.529480,64.311859 
	C236.491928,64.311859 201.854523,64.311859 167.120926,64.311859 
	C166.508041,66.079193 165.931625,67.741409 165.226822,69.773819 
	C116.702179,69.773819 68.307899,69.773819 19.282654,69.773819 
	C22.792458,76.025475 26.114624,81.573723 29.047478,87.320641 
	C30.542984,90.251076 32.418629,91.091873 35.664051,91.082428 
	C77.990082,90.959251 120.316597,91.003166 162.642990,90.991211 
	C164.085785,90.990807 165.528549,90.845673 167.465790,90.741379 
	C167.465790,85.189163 167.465790,79.986122 167.465790,74.155464 
	C173.611786,78.334526 174.659470,83.991379 174.666412,89.904305 
	C174.726425,141.062515 174.709717,192.220825 174.666199,243.379074 
	C174.664993,244.805939 174.572845,246.637039 173.737534,247.593719 
	C168.039307,254.119797 161.324631,259.357758 152.862091,263.377350 
	C154.906876,209.816589 156.924469,156.968109 158.943176,104.090584 
	C140.418686,104.090584 122.366936,104.090584 103.684929,104.090584 
	C103.872925,107.289764 102.979492,111.760628 104.383018,112.664398 
	C111.586479,117.302910 112.342773,123.973595 112.109184,131.416153 
	C110.651245,177.867065 109.253975,224.319870 107.811333,270.771271 
	C107.772301,272.028046 107.447311,273.275940 107.248825,274.572693 
	C102.913757,274.572693 99.007538,274.572693 94.951096,274.572693 
	C94.133232,243.759293 93.324692,213.296829 92.511398,181.890396 
M1349.070801,233.500000 
	C1349.070801,225.376083 1349.070801,217.252167 1349.070801,208.920013 
	C1273.509399,208.920013 1198.417969,208.920013 1123.024902,208.920013 
	C1122.333618,211.653656 1121.661011,214.313782 1120.921509,217.237961 
	C1129.900513,221.053940 1130.526733,228.803574 1130.674561,236.654877 
	C1130.875366,247.316360 1130.326538,258.019653 1131.071167,268.636871 
	C1132.226562,285.111633 1140.152100,297.648895 1156.030396,303.336975 
	C1163.389160,305.973114 1171.611084,307.224304 1179.458862,307.299011 
	C1219.785889,307.682739 1260.118408,307.491699 1300.449097,307.459930 
	C1303.608154,307.457428 1306.781250,307.272400 1309.923828,306.943420 
	C1334.116455,304.410797 1348.754883,288.366547 1349.048828,263.997803 
	C1349.167480,254.166550 1349.069946,244.332687 1349.070801,233.500000 
M1272.500000,64.165367 
	C1263.379272,64.165367 1254.258667,64.165367 1245.328613,64.165367 
	C1243.429810,69.106529 1242.914185,72.900421 1248.004272,76.039856 
	C1250.051514,77.302490 1251.751587,80.719589 1251.868774,83.237206 
	C1252.314331,92.801300 1252.048218,102.398552 1252.048218,112.529663 
	C1240.472778,112.529663 1228.734863,112.529663 1216.919800,112.529663 
	C1216.919800,119.853439 1216.919800,126.632919 1216.919800,133.910736 
	C1228.868286,133.910736 1240.614624,133.910736 1252.965942,133.910736 
	C1252.965942,156.605301 1252.965942,178.808273 1252.965942,200.893524 
	C1268.187988,200.893524 1282.790771,200.893524 1297.880127,200.893524 
	C1297.880127,158.922867 1297.880127,117.222420 1297.880127,74.626648 
	C1303.052612,79.035904 1304.009888,84.029732 1304.007446,89.455940 
	C1303.991455,124.788719 1303.999512,160.121490 1303.999634,195.454269 
	C1303.999756,197.238907 1303.999634,199.023529 1303.999634,200.904022 
	C1319.229492,200.904022 1333.962646,200.904022 1348.743286,200.904022 
	C1348.743286,155.256409 1348.743286,109.870552 1348.743286,64.165390 
	C1323.443726,64.165390 1298.471802,64.165390 1272.500000,64.165367 
M678.140320,159.336807 
	C692.864563,172.749634 701.232117,189.949326 707.217529,208.882309 
	C721.724365,200.916016 735.908752,193.126831 750.218506,185.268799 
	C733.112061,152.974487 707.322205,132.860062 671.502930,125.683441 
	C677.360962,105.253792 683.074097,85.329391 688.832947,65.245575 
	C669.234619,65.245575 649.976013,65.245575 629.693054,65.245575 
	C629.940063,68.557793 629.957031,71.625244 630.451538,74.613693 
	C630.940735,77.570656 633.046326,80.692421 632.480103,83.318726 
	C629.681335,96.301842 626.293762,109.160988 622.908203,122.009666 
	C622.598267,123.185806 620.988403,124.466400 619.718872,124.869896 
	C611.673035,127.427162 603.233521,129.004990 595.523743,132.306641 
	C579.281250,139.262268 564.507568,148.553238 554.991638,164.156006 
	C546.370239,178.291931 548.892822,195.858292 560.897278,205.243942 
	C569.911255,212.291458 580.573120,213.120667 591.343872,211.528366 
	C620.045288,207.285263 640.499512,190.939362 655.274048,166.747406 
	C658.615540,161.275925 661.321228,155.416107 664.615234,149.174835 
	C669.108765,152.551971 673.340149,155.732101 678.140320,159.336807 
M902.253784,191.751419 
	C915.084412,178.982697 923.975586,163.737747 930.183350,146.539062 
	C941.502808,151.836777 950.393433,159.574432 956.964355,169.513412 
	C963.395996,179.241623 968.757446,189.677353 974.724792,200.038864 
	C988.340149,192.378082 1002.311707,184.516907 1016.478088,176.546082 
	C1007.164612,162.258301 996.119446,150.456848 982.380127,141.237610 
	C968.694702,132.054550 953.574280,126.402351 937.100098,123.286949 
	C942.350830,103.694069 947.480347,84.553749 952.664673,65.208679 
	C932.889221,65.208679 913.775574,65.208679 893.723145,65.208679 
	C893.879456,68.486145 893.807495,71.580490 894.233643,74.604630 
	C894.650513,77.562355 896.595032,80.634560 896.102478,83.334229 
	C893.836365,95.754379 890.798645,108.032028 888.398499,120.430641 
	C887.798889,123.527893 886.327393,124.390350 883.638123,125.060997 
	C869.626587,128.555222 856.683105,134.528763 844.922546,142.871780 
	C833.182800,151.199982 823.262756,161.058060 819.438660,175.635391 
	C814.603088,194.068573 822.585022,210.088547 839.254883,213.666245 
	C845.623962,215.033173 852.554382,215.115341 859.047607,214.313583 
	C875.856506,212.238022 889.599792,203.651886 902.253784,191.751419 
M888.861755,216.291351 
	C884.451904,218.939224 879.776245,221.231186 875.675842,224.293457 
	C851.565063,242.300003 851.677429,274.823639 875.840332,292.718018 
	C885.471130,299.850250 896.448792,304.160889 907.990906,306.938141 
	C937.995422,314.157806 968.358521,314.452972 998.799316,310.682068 
	C1015.218506,308.648132 1031.172363,304.655975 1045.567017,295.967590 
	C1070.061646,281.182983 1075.966553,251.813828 1058.446289,231.576096 
	C1051.189819,223.194153 1041.870483,217.816498 1031.609497,213.976440 
	C1010.573059,206.103867 988.614319,204.011185 966.387817,203.864883 
	C940.128357,203.692047 914.167480,205.577621 888.861755,216.291351 
M1194.500000,88.295830 
	C1205.911133,88.295830 1217.322266,88.295830 1228.767822,88.295830 
	C1228.767822,80.881630 1228.767822,74.127274 1228.767822,67.340141 
	C1180.241333,67.340141 1131.950195,67.340141 1082.738159,67.340141 
	C1086.700562,69.657761 1089.717529,71.717773 1092.975464,73.272636 
	C1102.874512,77.997047 1106.759521,85.637596 1106.437012,96.604454 
	C1105.903564,114.747299 1106.227539,132.917648 1106.342041,151.075439 
	C1106.367188,155.048706 1106.631226,159.104599 1107.469971,162.974014 
	C1111.125366,179.837555 1123.655273,192.152740 1143.013672,193.672592 
	C1162.805176,195.226456 1182.893066,194.526352 1202.747925,193.231430 
	C1216.645508,192.325043 1230.122192,187.916199 1242.604126,181.291840 
	C1244.022217,180.539139 1245.981323,178.950394 1246.006592,177.714951 
	C1246.259644,165.317703 1246.160278,152.913254 1246.160278,139.909042 
	C1240.875244,146.178238 1236.766113,152.585052 1231.235107,157.336517 
	C1211.797607,174.034195 1188.505615,175.887680 1164.386719,172.846146 
	C1158.477905,172.100998 1154.104736,167.822998 1153.674194,161.820663 
	C1153.016602,152.654343 1153.501831,143.406052 1153.501831,133.742096 
	C1173.812744,133.742096 1194.216797,133.742096 1214.583618,133.742096 
	C1214.583618,126.398155 1214.583618,119.508247 1214.583618,112.140923 
	C1193.840820,112.140923 1173.441406,112.140923 1152.933594,112.140923 
	C1152.933594,104.050194 1152.933594,96.449150 1152.933594,88.295891 
	C1166.600342,88.295891 1180.050171,88.295891 1194.500000,88.295830 
M777.474182,265.008575 
	C766.801514,269.992706 756.464478,275.950500 745.389771,279.768524 
	C718.087280,289.181091 689.719421,286.530945 661.751221,284.302612 
	C647.006165,283.127808 641.021851,274.194702 640.941650,259.258789 
	C640.884399,248.594986 640.930298,237.930618 640.930176,227.266510 
	C640.930176,222.999680 640.930176,218.732864 640.930176,214.498932 
	C621.701599,214.498932 603.125916,214.498932 583.446045,214.498932 
	C583.841125,217.925949 583.067932,222.350861 584.739563,223.664490 
	C590.083496,227.863876 591.793884,233.143707 591.893982,239.344299 
	C592.023071,247.340302 591.725098,255.346329 591.975952,263.336578 
	C592.438354,278.065308 598.775391,289.502319 611.667114,297.036407 
	C620.747803,302.343262 630.733948,305.337158 641.042419,305.845306 
	C662.151978,306.885956 683.307739,306.968719 704.442261,307.528381 
	C722.892700,308.016968 740.972229,305.479126 758.776733,300.879059 
	C775.398682,296.584473 791.620972,291.175262 806.196228,281.802307 
	C807.810669,280.764099 809.865479,278.767151 809.900574,277.174835 
	C810.196411,263.754517 810.069214,250.324829 810.069214,236.897964 
	C800.715210,247.965668 790.207336,257.218170 777.474182,265.008575 
M801.929138,116.500008 
	C801.929138,99.109146 801.929138,81.718285 801.929138,64.322968 
	C783.485779,64.322968 765.859192,64.322968 747.819946,64.322968 
	C747.404175,67.166794 747.002319,69.915565 746.593445,72.712181 
	C754.356750,76.825256 755.864319,83.693436 755.857178,91.422409 
	C755.813232,139.044281 755.835205,186.666199 755.835205,234.288101 
	C755.835205,236.054306 755.835205,237.820496 755.835205,239.615417 
	C771.500427,239.615417 786.551270,239.615417 801.929138,239.615417 
	C801.929138,198.701675 801.929138,158.100845 801.929138,116.500008 
M1065.714600,114.446533 
	C1065.714600,97.839798 1065.714600,81.233063 1065.714600,64.503555 
	C1047.276367,64.503555 1029.395142,64.503555 1011.444580,64.503555 
	C1010.997009,67.432487 1010.599792,70.032227 1010.184082,72.752823 
	C1017.717041,76.316956 1019.326111,82.760147 1019.313049,90.208290 
	C1019.249756,126.352997 1019.284546,162.497879 1019.284607,198.642700 
	C1019.284607,200.412766 1019.284607,202.182831 1019.284607,204.037872 
	C1035.036011,204.037872 1050.127197,204.037872 1065.756836,204.037872 
	C1065.756836,182.886658 1065.756836,161.997437 1065.756836,140.595993 
	C1078.021484,140.595993 1089.755981,140.595993 1101.459595,140.595993 
	C1101.459595,133.184326 1101.459595,126.300369 1101.459595,119.157440 
	C1090.595825,119.157440 1080.115601,119.061630 1069.639404,119.219284 
	C1066.721313,119.263191 1065.119141,118.681984 1065.714600,114.446533 
z"/>
<path fill="#6B3D02" opacity="1.000000" stroke="none" 
	d="
M92.513771,182.362366 
	C93.324692,213.296829 94.133232,243.759293 94.951096,274.572693 
	C99.007538,274.572693 102.913757,274.572693 107.248825,274.572693 
	C107.447311,273.275940 107.772301,272.028046 107.811333,270.771271 
	C109.253975,224.319870 110.651245,177.867065 112.109184,131.416153 
	C112.342773,123.973595 111.586479,117.302910 104.383018,112.664398 
	C102.979492,111.760628 103.872925,107.289764 103.684929,104.090584 
	C122.366936,104.090584 140.418686,104.090584 158.943176,104.090584 
	C156.924469,156.968109 154.906876,209.816589 152.862091,263.377350 
	C161.324631,259.357758 168.039307,254.119797 173.737534,247.593719 
	C174.572845,246.637039 174.664993,244.805939 174.666199,243.379074 
	C174.709717,192.220825 174.726425,141.062515 174.666412,89.904305 
	C174.659470,83.991379 173.611786,78.334526 167.465790,74.155464 
	C167.465790,79.986122 167.465790,85.189163 167.465790,90.741379 
	C165.528549,90.845673 164.085785,90.990807 162.642990,90.991211 
	C120.316597,91.003166 77.990082,90.959251 35.664051,91.082428 
	C32.418629,91.091873 30.542984,90.251076 29.047478,87.320641 
	C26.114624,81.573723 22.792458,76.025475 19.282654,69.773819 
	C68.307899,69.773819 116.702179,69.773819 165.226822,69.773819 
	C165.931625,67.741409 166.508041,66.079193 167.120926,64.311859 
	C201.854523,64.311859 236.491928,64.311859 271.529480,64.311859 
	C271.529480,145.565292 271.529480,226.781860 271.529480,308.353455 
	C256.966156,308.353455 242.235580,308.353455 226.954559,308.353455 
	C226.954559,267.603973 226.954559,226.879929 226.954559,185.840851 
	C224.193237,185.840851 221.979279,185.840851 219.364944,185.840851 
	C219.364944,226.749329 219.364944,267.360992 219.364944,308.338257 
	C204.422577,308.338257 189.875305,308.338257 174.763824,308.338257 
	C174.763824,297.572784 174.763824,286.862579 174.763824,275.288635 
	C171.042542,277.478699 168.161392,279.314484 165.157074,280.919769 
	C145.372513,291.491486 124.085258,296.229248 101.814873,296.457947 
	C76.488365,296.718018 51.157005,296.482422 25.828131,296.570404 
	C23.039747,296.580109 21.320658,295.961487 19.968954,293.237488 
	C17.026606,287.308044 13.617636,281.610107 10.004773,275.107300 
	C23.226801,275.107300 35.873035,275.107300 47.858898,275.107300 
	C47.858898,260.566101 48.130493,246.624008 47.805496,232.695816 
	C46.989525,197.726654 45.916306,162.763428 44.914135,127.798737 
	C44.744324,121.874077 42.690208,117.088524 37.829845,113.080399 
	C36.056358,111.617882 36.534615,107.424843 35.896244,103.997948 
	C54.701138,103.997948 72.285873,103.997948 90.421143,103.997948 
	C91.119865,130.035553 91.815628,155.962967 92.513771,182.362366 
M219.232254,112.499939 
	C219.232254,129.594391 219.232254,146.688843 219.232254,163.694946 
	C222.125351,163.694946 224.368027,163.694946 226.818695,163.694946 
	C226.818695,137.896667 226.877823,112.438820 226.727615,86.982216 
	C226.712524,84.425079 225.771271,81.708366 224.630737,79.372932 
	C223.644699,77.353813 221.763611,75.771774 220.278168,73.996521 
	C219.929550,74.221954 219.580917,74.447395 219.232300,74.672829 
	C219.232300,86.948532 219.232300,99.224228 219.232254,112.499939 
z"/>
<path fill="#6B3D02" opacity="1.000000" stroke="none" 
	d="
M431.103455,151.907806 
	C430.591888,150.528976 430.080322,149.150146 429.378815,147.259308 
	C449.231873,147.259308 468.909912,147.259308 488.873901,147.259308 
	C488.873901,138.685333 488.873901,130.618729 488.873901,122.000992 
	C481.262146,122.000992 473.650604,122.000992 466.039032,122.000992 
	C460.040527,122.000992 453.959991,121.378113 448.063751,122.154640 
	C440.247131,123.184082 435.728149,120.325043 432.937073,113.154823 
	C431.348389,109.073639 428.729370,105.393524 426.133057,100.742226 
	C447.601837,100.742226 468.148132,100.742226 489.140259,100.742226 
	C488.649597,90.201752 492.051453,79.148346 480.004547,72.710968 
	C480.430664,70.100731 480.855164,67.500076 481.339142,64.535278 
	C499.232574,64.535278 517.096924,64.535278 535.240601,64.535278 
	C535.240601,122.882881 535.240601,181.129410 535.240601,239.653259 
	C519.988831,239.653259 504.914917,239.653259 489.249878,239.653259 
	C489.249878,216.059784 489.249878,192.507843 489.249878,168.817352 
	C474.789581,168.817352 460.920319,168.817352 446.708984,168.817352 
	C452.087036,177.419205 457.239746,185.660629 462.808228,194.567093 
	C448.146332,201.623642 434.023254,208.420883 419.392181,215.462601 
	C413.011932,194.622025 406.457031,174.080215 389.596252,158.777420 
	C376.631653,187.041489 357.693481,208.139328 327.011261,216.998810 
	C334.810974,216.998810 342.610687,216.998810 350.410400,216.998810 
	C358.207916,216.998810 366.005463,216.998810 374.293640,216.998810 
	C374.293640,226.830811 374.280273,236.270706 374.299072,245.710526 
	C374.309052,250.707977 374.173187,255.716675 374.453979,260.700531 
	C375.258972,274.989075 381.064697,283.168182 395.209290,284.340424 
	C421.366516,286.508209 447.856812,288.718964 473.635773,281.389587 
	C500.085083,273.869568 523.386230,260.883179 540.753235,238.806519 
	C541.368286,238.024689 541.879517,237.161102 543.420776,236.831314 
	C543.515320,238.021729 543.689697,239.211990 543.692017,240.402588 
	C543.713745,251.733047 543.542664,263.067322 543.801514,274.391907 
	C543.885132,278.051025 542.602051,280.138947 539.609375,282.003296 
	C524.899780,291.166809 508.735229,296.628693 492.114532,300.915466 
	C474.468903,305.466644 456.560730,307.911346 438.276611,307.553619 
	C420.289917,307.201691 402.256073,307.837189 384.322388,306.740082 
	C373.827789,306.098053 363.107330,304.031128 353.161835,300.633942 
	C334.472626,294.250122 325.517609,280.418610 325.303345,260.636963 
	C325.238403,254.639175 325.209747,248.638626 325.314606,242.641953 
	C325.442535,235.324127 323.433044,229.170898 316.432556,225.624435 
	C316.861420,223.017075 317.256012,220.617889 317.680786,218.035522 
	C314.661926,217.743790 311.863281,217.534134 309.080475,217.194763 
	C287.321106,214.541183 277.092010,196.694580 285.756958,176.478088 
	C290.995789,164.255173 300.236145,155.482620 310.854309,148.045105 
	C321.011932,140.930176 332.088074,135.610870 344.243103,132.904434 
	C347.865417,132.097885 349.266449,130.381470 349.861755,126.768097 
	C352.187073,112.653854 355.092529,98.631966 357.226135,84.491821 
	C357.712585,81.268135 355.743134,77.736908 355.336212,74.296127 
	C354.989624,71.365501 355.264618,68.361366 355.264618,65.202713 
	C375.227142,65.202713 394.338135,65.202713 413.942444,65.202713 
	C408.383118,88.201286 402.862000,111.041817 397.625885,132.703339 
	C408.704590,139.438416 419.257690,145.853973 430.262085,152.686020 
	C431.092072,153.221344 431.470703,153.340164 431.849365,153.459000 
	C431.600739,152.941940 431.352081,152.424866 431.103455,151.907806 
M312.650085,187.994843 
	C315.408325,187.008209 318.553955,186.570175 320.859314,184.942215 
	C332.273987,176.881622 338.099274,164.990540 343.471069,151.094360 
	C328.421051,158.415909 317.019531,167.526169 310.711884,181.892319 
	C310.039093,183.424698 311.411896,185.855194 312.650085,187.994843 
z"/>
<path fill="#6A3D01" opacity="1.000000" stroke="none" 
	d="
M1349.070801,234.000000 
	C1349.069946,244.332687 1349.167480,254.166550 1349.048828,263.997803 
	C1348.754883,288.366547 1334.116455,304.410797 1309.923828,306.943420 
	C1306.781250,307.272400 1303.608154,307.457428 1300.449097,307.459930 
	C1260.118408,307.491699 1219.785889,307.682739 1179.458862,307.299011 
	C1171.611084,307.224304 1163.389160,305.973114 1156.030396,303.336975 
	C1140.152100,297.648895 1132.226562,285.111633 1131.071167,268.636871 
	C1130.326538,258.019653 1130.875366,247.316360 1130.674561,236.654877 
	C1130.526733,228.803574 1129.900513,221.053940 1120.921509,217.237961 
	C1121.661011,214.313782 1122.333618,211.653656 1123.024902,208.920013 
	C1198.417969,208.920013 1273.509399,208.920013 1349.070801,208.920013 
	C1349.070801,217.252167 1349.070801,225.376083 1349.070801,234.000000 
M1280.500000,230.000153 
	C1246.070068,230.000153 1211.640015,230.000153 1176.929321,230.000153 
	C1176.929321,243.532318 1176.892090,256.502594 1176.939941,269.472534 
	C1176.987061,282.224457 1180.867432,286.042511 1193.776123,286.065552 
	C1211.272217,286.096802 1228.768311,286.077393 1246.264404,286.072205 
	C1260.427734,286.068024 1274.592651,286.177582 1288.753784,285.996948 
	C1297.636353,285.883636 1301.553223,282.687286 1302.106689,273.917511 
	C1302.818848,262.632507 1302.558350,251.285660 1302.695557,239.965179 
	C1302.735107,236.709961 1302.701660,233.453842 1302.701660,230.000153 
	C1295.150024,230.000153 1288.324951,230.000153 1280.500000,230.000153 
z"/>
<path fill="#6B3D02" opacity="1.000000" stroke="none" 
	d="
M1273.000000,64.165375 
	C1298.471802,64.165390 1323.443726,64.165390 1348.743286,64.165390 
	C1348.743286,109.870552 1348.743286,155.256409 1348.743286,200.904022 
	C1333.962646,200.904022 1319.229492,200.904022 1303.999634,200.904022 
	C1303.999634,199.023529 1303.999756,197.238907 1303.999634,195.454269 
	C1303.999512,160.121490 1303.991455,124.788719 1304.007446,89.455940 
	C1304.009888,84.029732 1303.052612,79.035904 1297.880127,74.626648 
	C1297.880127,117.222420 1297.880127,158.922867 1297.880127,200.893524 
	C1282.790771,200.893524 1268.187988,200.893524 1252.965942,200.893524 
	C1252.965942,178.808273 1252.965942,156.605301 1252.965942,133.910736 
	C1240.614624,133.910736 1228.868286,133.910736 1216.919800,133.910736 
	C1216.919800,126.632919 1216.919800,119.853439 1216.919800,112.529663 
	C1228.734863,112.529663 1240.472778,112.529663 1252.048218,112.529663 
	C1252.048218,102.398552 1252.314331,92.801300 1251.868774,83.237206 
	C1251.751587,80.719589 1250.051514,77.302490 1248.004272,76.039856 
	C1242.914185,72.900421 1243.429810,69.106529 1245.328613,64.165367 
	C1254.258667,64.165367 1263.379272,64.165367 1273.000000,64.165375 
z"/>
<path fill="#6B3D02" opacity="1.000000" stroke="none" 
	d="
M677.855957,159.124512 
	C673.340149,155.732101 669.108765,152.551971 664.615234,149.174835 
	C661.321228,155.416107 658.615540,161.275925 655.274048,166.747406 
	C640.499512,190.939362 620.045288,207.285263 591.343872,211.528366 
	C580.573120,213.120667 569.911255,212.291458 560.897278,205.243942 
	C548.892822,195.858292 546.370239,178.291931 554.991638,164.156006 
	C564.507568,148.553238 579.281250,139.262268 595.523743,132.306641 
	C603.233521,129.004990 611.673035,127.427162 619.718872,124.869896 
	C620.988403,124.466400 622.598267,123.185806 622.908203,122.009666 
	C626.293762,109.160988 629.681335,96.301842 632.480103,83.318726 
	C633.046326,80.692421 630.940735,77.570656 630.451538,74.613693 
	C629.957031,71.625244 629.940063,68.557793 629.693054,65.245575 
	C649.976013,65.245575 669.234619,65.245575 688.832947,65.245575 
	C683.074097,85.329391 677.360962,105.253792 671.502930,125.683441 
	C707.322205,132.860062 733.112061,152.974487 750.218506,185.268799 
	C735.908752,193.126831 721.724365,200.916016 707.217529,208.882309 
	C701.232117,189.949326 692.864563,172.749634 677.855957,159.124512 
M611.243408,155.686981 
	C612.959961,152.012680 614.676514,148.338379 616.990479,143.385315 
	C600.618530,149.191864 587.800049,157.337479 578.981323,170.951019 
	C577.941711,172.555893 577.391052,174.614380 577.097351,176.536484 
	C576.516235,180.339111 578.555298,182.696747 582.194397,181.777954 
	C586.264832,180.750275 590.962341,179.491165 593.762939,176.702057 
	C600.028442,170.462402 605.286011,163.210663 611.243408,155.686981 
z"/>
<path fill="#6B3D02" opacity="1.000000" stroke="none" 
	d="
M902.001160,192.002014 
	C889.599792,203.651886 875.856506,212.238022 859.047607,214.313583 
	C852.554382,215.115341 845.623962,215.033173 839.254883,213.666245 
	C822.585022,210.088547 814.603088,194.068573 819.438660,175.635391 
	C823.262756,161.058060 833.182800,151.199982 844.922546,142.871780 
	C856.683105,134.528763 869.626587,128.555222 883.638123,125.060997 
	C886.327393,124.390350 887.798889,123.527893 888.398499,120.430641 
	C890.798645,108.032028 893.836365,95.754379 896.102478,83.334229 
	C896.595032,80.634560 894.650513,77.562355 894.233643,74.604630 
	C893.807495,71.580490 893.879456,68.486145 893.723145,65.208679 
	C913.775574,65.208679 932.889221,65.208679 952.664673,65.208679 
	C947.480347,84.553749 942.350830,103.694069 937.100098,123.286949 
	C953.574280,126.402351 968.694702,132.054550 982.380127,141.237610 
	C996.119446,150.456848 1007.164612,162.258301 1016.478088,176.546082 
	C1002.311707,184.516907 988.340149,192.378082 974.724792,200.038864 
	C968.757446,189.677353 963.395996,179.241623 956.964355,169.513412 
	C950.393433,159.574432 941.502808,151.836777 930.183350,146.539062 
	C923.975586,163.737747 915.084412,178.982697 902.001160,192.002014 
M849.598328,184.691147 
	C852.261230,183.891693 855.311096,183.672501 857.523315,182.197235 
	C870.468567,173.564514 876.203064,160.136597 881.895325,145.307922 
	C879.709473,146.090927 878.647888,146.357330 877.689514,146.832047 
	C867.421448,151.917923 858.527588,158.816299 851.735046,168.035889 
	C849.157959,171.533783 847.650574,175.872849 845.969055,179.957550 
	C844.975403,182.371048 846.031738,184.140778 849.598328,184.691147 
z"/>
<path fill="#6B3D02" opacity="1.000000" stroke="none" 
	d="
M889.220093,216.161163 
	C914.167480,205.577621 940.128357,203.692047 966.387817,203.864883 
	C988.614319,204.011185 1010.573059,206.103867 1031.609497,213.976440 
	C1041.870483,217.816498 1051.189819,223.194153 1058.446289,231.576096 
	C1075.966553,251.813828 1070.061646,281.182983 1045.567017,295.967590 
	C1031.172363,304.655975 1015.218506,308.648132 998.799316,310.682068 
	C968.358521,314.452972 937.995422,314.157806 907.990906,306.938141 
	C896.448792,304.160889 885.471130,299.850250 875.840332,292.718018 
	C851.677429,274.823639 851.565063,242.300003 875.675842,224.293457 
	C879.776245,221.231186 884.451904,218.939224 889.220093,216.161163 
M970.427673,291.228638 
	C971.924011,291.148956 973.427795,291.138336 974.915588,290.978729 
	C987.598450,289.618103 999.919678,287.044128 1010.368896,279.122040 
	C1025.912231,267.337738 1025.834839,249.388641 1010.248779,237.611420 
	C1001.657593,231.119690 991.680603,228.079391 981.202393,226.574081 
	C962.310547,223.860062 943.705627,224.571411 925.810852,232.020325 
	C923.223816,233.097183 920.744812,234.520416 918.387207,236.047943 
	C899.076782,248.559250 899.654236,270.286469 919.679016,281.704895 
	C935.142517,290.522430 952.116028,291.938599 970.427673,291.228638 
z"/>
<path fill="#6B3E02" opacity="1.000000" stroke="none" 
	d="
M1194.000000,88.295860 
	C1180.050171,88.295891 1166.600342,88.295891 1152.933594,88.295891 
	C1152.933594,96.449150 1152.933594,104.050194 1152.933594,112.140923 
	C1173.441406,112.140923 1193.840820,112.140923 1214.583618,112.140923 
	C1214.583618,119.508247 1214.583618,126.398155 1214.583618,133.742096 
	C1194.216797,133.742096 1173.812744,133.742096 1153.501831,133.742096 
	C1153.501831,143.406052 1153.016602,152.654343 1153.674194,161.820663 
	C1154.104736,167.822998 1158.477905,172.100998 1164.386719,172.846146 
	C1188.505615,175.887680 1211.797607,174.034195 1231.235107,157.336517 
	C1236.766113,152.585052 1240.875244,146.178238 1246.160278,139.909042 
	C1246.160278,152.913254 1246.259644,165.317703 1246.006592,177.714951 
	C1245.981323,178.950394 1244.022217,180.539139 1242.604126,181.291840 
	C1230.122192,187.916199 1216.645508,192.325043 1202.747925,193.231430 
	C1182.893066,194.526352 1162.805176,195.226456 1143.013672,193.672592 
	C1123.655273,192.152740 1111.125366,179.837555 1107.469971,162.974014 
	C1106.631226,159.104599 1106.367188,155.048706 1106.342041,151.075439 
	C1106.227539,132.917648 1105.903564,114.747299 1106.437012,96.604454 
	C1106.759521,85.637596 1102.874512,77.997047 1092.975464,73.272636 
	C1089.717529,71.717773 1086.700562,69.657761 1082.738159,67.340141 
	C1131.950195,67.340141 1180.241333,67.340141 1228.767822,67.340141 
	C1228.767822,74.127274 1228.767822,80.881630 1228.767822,88.295830 
	C1217.322266,88.295830 1205.911133,88.295830 1194.000000,88.295860 
z"/>
<path fill="#6B3D02" opacity="1.000000" stroke="none" 
	d="
M777.798889,264.846130 
	C790.207336,257.218170 800.715210,247.965668 810.069214,236.897964 
	C810.069214,250.324829 810.196411,263.754517 809.900574,277.174835 
	C809.865479,278.767151 807.810669,280.764099 806.196228,281.802307 
	C791.620972,291.175262 775.398682,296.584473 758.776733,300.879059 
	C740.972229,305.479126 722.892700,308.016968 704.442261,307.528381 
	C683.307739,306.968719 662.151978,306.885956 641.042419,305.845306 
	C630.733948,305.337158 620.747803,302.343262 611.667114,297.036407 
	C598.775391,289.502319 592.438354,278.065308 591.975952,263.336578 
	C591.725098,255.346329 592.023071,247.340302 591.893982,239.344299 
	C591.793884,233.143707 590.083496,227.863876 584.739563,223.664490 
	C583.067932,222.350861 583.841125,217.925949 583.446045,214.498932 
	C603.125916,214.498932 621.701599,214.498932 640.930176,214.498932 
	C640.930176,218.732864 640.930176,222.999680 640.930176,227.266510 
	C640.930298,237.930618 640.884399,248.594986 640.941650,259.258789 
	C641.021851,274.194702 647.006165,283.127808 661.751221,284.302612 
	C689.719421,286.530945 718.087280,289.181091 745.389771,279.768524 
	C756.464478,275.950500 766.801514,269.992706 777.798889,264.846130 
z"/>
<path fill="#6B3D01" opacity="1.000000" stroke="none" 
	d="
M801.929138,117.000015 
	C801.929138,158.100845 801.929138,198.701675 801.929138,239.615417 
	C786.551270,239.615417 771.500427,239.615417 755.835205,239.615417 
	C755.835205,237.820496 755.835205,236.054306 755.835205,234.288101 
	C755.835205,186.666199 755.813232,139.044281 755.857178,91.422409 
	C755.864319,83.693436 754.356750,76.825256 746.593445,72.712181 
	C747.002319,69.915565 747.404175,67.166794 747.819946,64.322968 
	C765.859192,64.322968 783.485779,64.322968 801.929138,64.322968 
	C801.929138,81.718285 801.929138,99.109146 801.929138,117.000015 
z"/>
<path fill="#6D3F05" opacity="1.000000" stroke="none" 
	d="
M1065.714966,114.940620 
	C1065.119141,118.681984 1066.721313,119.263191 1069.639404,119.219284 
	C1080.115601,119.061630 1090.595825,119.157440 1101.459595,119.157440 
	C1101.459595,126.300369 1101.459595,133.184326 1101.459595,140.595993 
	C1089.755981,140.595993 1078.021484,140.595993 1065.756836,140.595993 
	C1065.756836,161.997437 1065.756836,182.886658 1065.756836,204.037872 
	C1050.127197,204.037872 1035.036011,204.037872 1019.284607,204.037872 
	C1019.284607,202.182831 1019.284607,200.412766 1019.284607,198.642700 
	C1019.284546,162.497879 1019.249756,126.352997 1019.313049,90.208290 
	C1019.326111,82.760147 1017.717041,76.316956 1010.184082,72.752823 
	C1010.599792,70.032227 1010.997009,67.432487 1011.444580,64.503555 
	C1029.395142,64.503555 1047.276367,64.503555 1065.714600,64.503555 
	C1065.714600,81.233063 1065.714600,97.839798 1065.714966,114.940620 
z"/>
<path fill="#F3EFEB" opacity="1.000000" stroke="none" 
	d="
M219.232269,111.999939 
	C219.232300,99.224228 219.232300,86.948532 219.232300,74.672829 
	C219.580917,74.447395 219.929550,74.221954 220.278168,73.996521 
	C221.763611,75.771774 223.644699,77.353813 224.630737,79.372932 
	C225.771271,81.708366 226.712524,84.425079 226.727615,86.982216 
	C226.877823,112.438820 226.818695,137.896667 226.818695,163.694946 
	C224.368027,163.694946 222.125351,163.694946 219.232254,163.694946 
	C219.232254,146.688843 219.232254,129.594391 219.232269,111.999939 
z"/>
<path fill="#FBF9F8" opacity="1.000000" stroke="none" 
	d="
M312.242920,187.931946 
	C311.411896,185.855194 310.039093,183.424698 310.711884,181.892319 
	C317.019531,167.526169 328.421051,158.415909 343.471069,151.094360 
	C338.099274,164.990540 332.273987,176.881622 320.859314,184.942215 
	C318.553955,186.570175 315.408325,187.008209 312.242920,187.931946 
z"/>
<path fill="#FEFEFE" opacity="1.000000" stroke="none" 
	d="
M430.909882,152.088013 
	C431.352081,152.424866 431.600739,152.941940 431.849365,153.459000 
	C431.470703,153.340164 431.092072,153.221344 430.533630,152.877975 
	C430.474640,152.525024 430.595490,152.396606 430.909882,152.088013 
z"/>
<path fill="#FFFEFE" opacity="1.000000" stroke="none" 
	d="
M1281.000000,230.000153 
	C1288.324951,230.000153 1295.150024,230.000153 1302.701660,230.000153 
	C1302.701660,233.453842 1302.735107,236.709961 1302.695557,239.965179 
	C1302.558350,251.285660 1302.818848,262.632507 1302.106689,273.917511 
	C1301.553223,282.687286 1297.636353,285.883636 1288.753784,285.996948 
	C1274.592651,286.177582 1260.427734,286.068024 1246.264404,286.072205 
	C1228.768311,286.077393 1211.272217,286.096802 1193.776123,286.065552 
	C1180.867432,286.042511 1176.987061,282.224457 1176.939941,269.472534 
	C1176.892090,256.502594 1176.929321,243.532318 1176.929321,230.000153 
	C1211.640015,230.000153 1246.070068,230.000153 1281.000000,230.000153 
z"/>
<path fill="#FBFAF9" opacity="1.000000" stroke="none" 
	d="
M611.098755,156.029053 
	C605.286011,163.210663 600.028442,170.462402 593.762939,176.702057 
	C590.962341,179.491165 586.264832,180.750275 582.194397,181.777954 
	C578.555298,182.696747 576.516235,180.339111 577.097351,176.536484 
	C577.391052,174.614380 577.941711,172.555893 578.981323,170.951019 
	C587.800049,157.337479 600.618530,149.191864 616.990479,143.385315 
	C614.676514,148.338379 612.959961,152.012680 611.098755,156.029053 
z"/>
<path fill="#FBFAF9" opacity="1.000000" stroke="none" 
	d="
M849.196533,184.625641 
	C846.031738,184.140778 844.975403,182.371048 845.969055,179.957550 
	C847.650574,175.872849 849.157959,171.533783 851.735046,168.035889 
	C858.527588,158.816299 867.421448,151.917923 877.689514,146.832047 
	C878.647888,146.357330 879.709473,146.090927 881.895325,145.307922 
	C876.203064,160.136597 870.468567,173.564514 857.523315,182.197235 
	C855.311096,183.672501 852.261230,183.891693 849.196533,184.625641 
z"/>
<path fill="#FEFEFD" opacity="1.000000" stroke="none" 
	d="
M969.937378,291.255859 
	C952.116028,291.938599 935.142517,290.522430 919.679016,281.704895 
	C899.654236,270.286469 899.076782,248.559250 918.387207,236.047943 
	C920.744812,234.520416 923.223816,233.097183 925.810852,232.020325 
	C943.705627,224.571411 962.310547,223.860062 981.202393,226.574081 
	C991.680603,228.079391 1001.657593,231.119690 1010.248779,237.611420 
	C1025.834839,249.388641 1025.912231,267.337738 1010.368896,279.122040 
	C999.919678,287.044128 987.598450,289.618103 974.915588,290.978729 
	C973.427795,291.138336 971.924011,291.148956 969.937378,291.255859 
z"/>
</svg>