<svg version="1.1" id="Layer_1" xmlns="http://www.w3.org/2000/svg" xmlns:xlink="http://www.w3.org/1999/xlink" x="0px" y="0px"
	 width="100%" viewBox="0 0 312 156" enable-background="new 0 0 312 156" xml:space="preserve">
<path fill="#D70112" opacity="1.000000" stroke="none" 
	d="
M1.000000,51.000000 
	C1.000000,34.341476 1.000000,17.682955 0.999999,1.018324 
	C104.941040,1.012216 208.882080,1.012216 312.911560,1.012216 
	C312.911560,52.915497 312.911560,104.831192 312.911560,156.873444 
	C209.000107,156.873444 105.000076,156.873444 1.000000,156.873444 
	C1.000000,135.249649 1.000000,113.593483 1.315101,91.657913 
	C4.391659,102.095505 9.861377,107.652885 20.845892,108.575325 
	C30.531809,109.388702 40.340042,108.745529 50.227329,108.745529 
	C50.227329,104.748421 50.227329,101.000900 50.227329,96.987022 
	C41.966965,96.987022 33.991280,97.112320 26.021505,96.949051 
	C19.121235,96.807693 14.692648,93.953598 14.335403,88.464127 
	C13.791096,80.100204 14.192835,71.674713 14.192835,62.860565 
	C26.361135,62.860565 38.250740,62.860565 50.195370,62.860565 
	C50.195370,58.696796 50.195370,54.961452 50.195370,51.000000 
	C33.583164,51.000000 17.291582,51.000000 1.000000,51.000000 
M138.457214,55.956066 
	C133.068756,54.611469 127.704872,52.262951 122.286743,52.130322 
	C110.848145,51.850300 100.624374,60.120098 96.979294,71.241722 
	C93.356865,82.294243 97.233765,94.858147 106.522247,102.167679 
	C115.566185,109.284767 128.681625,110.040329 138.323914,103.999725 
	C156.133682,92.842438 156.516571,69.754539 138.457214,55.956066 
M207.735794,63.243469 
	C200.638641,69.503922 193.541473,75.764374 186.653595,81.840233 
	C189.666245,85.174210 192.417221,88.218605 195.257401,91.361717 
	C205.879715,81.991158 216.113083,72.963707 226.501511,63.799461 
	C236.935669,72.989693 247.238907,82.064613 257.814758,91.379639 
	C260.905609,88.172028 263.656494,85.317223 266.719879,82.138138 
	C253.286575,70.313431 239.957550,58.580494 226.504700,46.738579 
	C220.272903,52.235909 214.282394,57.520390 207.735794,63.243469 
M262.310516,111.848442 
	C263.757721,111.770157 265.204895,111.691872 266.720093,111.609909 
	C266.720093,107.893127 266.720093,104.495819 266.720093,100.638672 
	C255.378494,100.638672 244.319626,100.638672 232.921570,100.638672 
	C232.921570,94.580917 232.921570,88.982292 232.921570,83.221481 
	C228.502762,83.221481 224.441299,83.221481 219.837112,83.221481 
	C219.837112,89.148666 219.837112,94.860458 219.837112,100.890152 
	C208.198013,100.890152 197.098434,100.890152 185.780319,100.890152 
	C185.780319,104.636169 185.780319,108.042259 185.780319,111.848473 
	C211.169708,111.848473 236.257309,111.848473 262.310516,111.848442 
M73.931412,111.620056 
	C74.204964,109.709290 74.689728,107.801254 74.714493,105.887268 
	C74.807999,98.660118 74.752060,91.431030 74.752060,83.869812 
	C79.080498,83.869812 82.679245,83.869812 86.469269,83.869812 
	C86.469269,79.776474 86.469269,76.040047 86.469269,71.728653 
	C82.495796,71.728653 78.768883,71.728653 74.537384,71.728653 
	C74.537384,63.586056 74.537384,56.014729 74.537384,48.412285 
	C70.088295,48.412285 66.167183,48.412285 62.197495,48.412285 
	C62.197495,69.659431 62.197495,90.638863 62.197495,111.821884 
	C66.086601,111.821884 69.561844,111.821884 73.931412,111.620056 
M174.232483,50.133625 
	C173.549088,49.449394 172.898743,48.217674 172.176651,48.174068 
	C168.733353,47.966122 165.270584,48.080933 161.646194,48.080933 
	C161.646194,69.554413 161.646194,90.569374 161.646194,111.625534 
	C165.966843,111.625534 169.902451,111.625534 174.245621,111.625534 
	C174.245621,91.280014 174.245621,71.162445 174.232483,50.133625 
z"/>
<path fill="#FEFBFB" opacity="1.000000" stroke="none" 
	d="
M1.000000,51.468658 
	C17.291582,51.000000 33.583164,51.000000 50.195370,51.000000 
	C50.195370,54.961452 50.195370,58.696796 50.195370,62.860565 
	C38.250740,62.860565 26.361135,62.860565 14.192835,62.860565 
	C14.192835,71.674713 13.791096,80.100204 14.335403,88.464127 
	C14.692648,93.953598 19.121235,96.807693 26.021505,96.949051 
	C33.991280,97.112320 41.966965,96.987022 50.227329,96.987022 
	C50.227329,101.000900 50.227329,104.748421 50.227329,108.745529 
	C40.340042,108.745529 30.531809,109.388702 20.845892,108.575325 
	C9.861377,107.652885 4.391659,102.095505 1.315101,91.189255 
	C1.000000,77.979103 1.000000,64.958214 1.000000,51.468658 
z"/>
<path fill="#FEFAFB" opacity="1.000000" stroke="none" 
	d="
M138.786270,56.117764 
	C156.516571,69.754539 156.133682,92.842438 138.323914,103.999725 
	C128.681625,110.040329 115.566185,109.284767 106.522247,102.167679 
	C97.233765,94.858147 93.356865,82.294243 96.979294,71.241722 
	C100.624374,60.120098 110.848145,51.850300 122.286743,52.130322 
	C127.704872,52.262951 133.068756,54.611469 138.786270,56.117764 
M110.901382,71.583099 
	C106.354439,80.584198 108.869118,89.774170 116.978966,93.793808 
	C124.570892,97.556747 134.065994,94.202240 137.737961,86.459938 
	C140.882126,79.830528 138.653549,71.584953 132.590927,67.416245 
	C125.560303,62.581932 117.793579,63.872574 110.901382,71.583099 
z"/>
<path fill="#FEFAFA" opacity="1.000000" stroke="none" 
	d="
M208.013840,63.024170 
	C214.282394,57.520390 220.272903,52.235909 226.504700,46.738579 
	C239.957550,58.580494 253.286575,70.313431 266.719879,82.138138 
	C263.656494,85.317223 260.905609,88.172028 257.814758,91.379639 
	C247.238907,82.064613 236.935669,72.989693 226.501511,63.799461 
	C216.113083,72.963707 205.879715,81.991158 195.257401,91.361717 
	C192.417221,88.218605 189.666245,85.174210 186.653595,81.840233 
	C193.541473,75.764374 200.638641,69.503922 208.013840,63.024170 
z"/>
<path fill="#FEF9FA" opacity="1.000000" stroke="none" 
	d="
M261.827698,111.848457 
	C236.257309,111.848473 211.169708,111.848473 185.780319,111.848473 
	C185.780319,108.042259 185.780319,104.636169 185.780319,100.890152 
	C197.098434,100.890152 208.198013,100.890152 219.837112,100.890152 
	C219.837112,94.860458 219.837112,89.148666 219.837112,83.221481 
	C224.441299,83.221481 228.502762,83.221481 232.921570,83.221481 
	C232.921570,88.982292 232.921570,94.580917 232.921570,100.638672 
	C244.319626,100.638672 255.378494,100.638672 266.720093,100.638672 
	C266.720093,104.495819 266.720093,107.893127 266.720093,111.609909 
	C265.204895,111.691872 263.757721,111.770157 261.827698,111.848457 
z"/>
<path fill="#FEF8F8" opacity="1.000000" stroke="none" 
	d="
M73.484253,111.720970 
	C69.561844,111.821884 66.086601,111.821884 62.197495,111.821884 
	C62.197495,90.638863 62.197495,69.659431 62.197495,48.412285 
	C66.167183,48.412285 70.088295,48.412285 74.537384,48.412285 
	C74.537384,56.014729 74.537384,63.586056 74.537384,71.728653 
	C78.768883,71.728653 82.495796,71.728653 86.469269,71.728653 
	C86.469269,76.040047 86.469269,79.776474 86.469269,83.869812 
	C82.679245,83.869812 79.080498,83.869812 74.752060,83.869812 
	C74.752060,91.431030 74.807999,98.660118 74.714493,105.887268 
	C74.689728,107.801254 74.204964,109.709290 73.484253,111.720970 
z"/>
<path fill="#FEF6F7" opacity="1.000000" stroke="none" 
	d="
M174.239044,50.589249 
	C174.245621,71.162445 174.245621,91.280014 174.245621,111.625534 
	C169.902451,111.625534 165.966843,111.625534 161.646194,111.625534 
	C161.646194,90.569374 161.646194,69.554413 161.646194,48.080933 
	C165.270584,48.080933 168.733353,47.966122 172.176651,48.174068 
	C172.898743,48.217674 173.549088,49.449394 174.239044,50.589249 
z"/>
<path fill="#D80314" opacity="1.000000" stroke="none" 
	d="
M111.103531,71.268219 
	C117.793579,63.872574 125.560303,62.581932 132.590927,67.416245 
	C138.653549,71.584953 140.882126,79.830528 137.737961,86.459938 
	C134.065994,94.202240 124.570892,97.556747 116.978966,93.793808 
	C108.869118,89.774170 106.354439,80.584198 111.103531,71.268219 
z"/>
</svg>