<svg id="_ico_gnb_maypage" data-name=" ico_gnb_maypage" xmlns="http://www.w3.org/2000/svg" xmlns:xlink="http://www.w3.org/1999/xlink" width="48" height="48" viewBox="0 0 48 48">
  <defs>
    <clipPath id="clip-path">
      <rect id="사각형_466678" data-name="사각형 466678" width="30" height="29.927" fill="#fff"/>
    </clipPath>
  </defs>
  <rect id="사각형_463315" data-name="사각형 463315" width="48" height="48" fill="#fff" opacity="0"/>
  <g id="그룹_653854" data-name="그룹 653854" transform="translate(8 8.295)">
    <g id="그룹_653853" data-name="그룹 653853" transform="translate(1 1)" clip-path="url(#clip-path)">
      <path id="패스_1509479" data-name="패스 1509479" d="M12.767,2.25h0a4.511,4.511,0,1,1-1.734.351,4.489,4.489,0,0,1,1.734-.351m0-2.25A6.751,6.751,0,1,0,19,4.146,6.751,6.751,0,0,0,12.767,0" transform="translate(1.484 0.001)" fill="#fff"/>
      <path id="패스_1509480" data-name="패스 1509480" d="M18,12.2a9.761,9.761,0,0,1,9.75,9.75v.75H2.25v-.75A9.761,9.761,0,0,1,12,12.2Zm0-2.25H12a12,12,0,0,0-12,12v3H30v-3a12,12,0,0,0-12-12" transform="translate(0 4.976)" fill="#fff"/>
    </g>
  </g>
</svg>
