<svg xmlns="http://www.w3.org/2000/svg" width="133" height="42" viewBox="0 0 133 42">
  <g id="btn_report" transform="translate(0.666)">
    <g id="사각형_479390" data-name="사각형 479390" transform="translate(-0.666)" fill="none" stroke="gray" stroke-width="1" opacity="0.5">
      <rect width="133" height="42" rx="21" stroke="none"/>
      <rect x="0.5" y="0.5" width="132" height="41" rx="20.5" fill="none"/>
    </g>
    <g id="ico_write" transform="translate(21.334 10.999)">
      <path id="사각형_479673" data-name="사각형 479673" d="M0,0H14.4a0,0,0,0,1,0,0V17a0,0,0,0,1,0,0H3a3,3,0,0,1-3-3V0A0,0,0,0,1,0,0Z" transform="translate(0.5 1.9)" fill="#fff"/>
      <path id="패스_1560369" data-name="패스 1560369" d="M16.1,22.84l-11.6.033a2.773,2.773,0,0,1-2.8-2.758V5.658l4.216,0" transform="translate(-1.202 -3.744)" fill="none" stroke="#fff" stroke-miterlimit="10" stroke-width="1"/>
      <path id="패스_1560370" data-name="패스 1560370" d="M32.2,5.628l3.49,0V9.636" transform="translate(-21.296 -3.725)" fill="none" stroke="#fff" stroke-miterlimit="10" stroke-width="1"/>
      <g id="사각형_479671" data-name="사각형 479671" transform="translate(4.468 -1)" fill="#fff" stroke="#111" stroke-miterlimit="10" stroke-width="1">
        <rect width="6.44" height="4.386" stroke="none"/>
        <rect x="0.5" y="0.5" width="5.44" height="3.386" fill="none"/>
      </g>
      <line id="선_25468" data-name="선 25468" x2="7.335" transform="translate(3.574 7.488)" fill="#fff" stroke="#111" stroke-width="1"/>
      <line id="선_25470" data-name="선 25470" x2="5.843" transform="translate(3.574 10.52)" fill="#fff" stroke="#111" stroke-width="1"/>
      <line id="선_25472" data-name="선 25472" x2="3.369" transform="translate(3.574 13.551)" fill="#fff" stroke="#111" stroke-width="1"/>
      <path id="패스_1560371" data-name="패스 1560371" d="M37.9,25.8l-5.885,5.837-2.2.276.29-2.195,5.885-5.837Z" transform="translate(-19.715 -15.809)" fill="#fff" stroke="#111" stroke-miterlimit="10" stroke-width="1"/>
      <rect id="사각형_479672" data-name="사각형 479672" width="20" height="22" transform="translate(-1 -1)" fill="none"/>
    </g>
    <path id="패스_1560372" data-name="패스 1560372" d="M-32.2-6.27V-7.92h-1.012v1.65a4.97,4.97,0,0,1-2.486,4.334l.638.814A5.13,5.13,0,0,0-32.7-4.2a5.016,5.016,0,0,0,2.288,2.9l.638-.814A4.716,4.716,0,0,1-32.2-6.27ZM-29.051.9h1.012V-4h1.54v-.88h-1.54V-8.712h-1.012Zm10.34-9.614h-1.034V.924h1.034ZM-26.367-4.62c0,2.079,1.045,3.388,2.486,3.388s2.5-1.309,2.486-3.388c.011-2.057-1.045-3.366-2.486-3.366S-26.367-6.677-26.367-4.62Zm.99,0c0-1.507.616-2.453,1.5-2.464.891.011,1.507.957,1.5,2.464.011,1.529-.6,2.475-1.5,2.464C-24.761-2.145-25.377-3.091-25.377-4.62Zm15.334,1.034h-5.676V-4.972h5.368v-.814h-5.368v-1.3h5.588V-7.92h-6.622v5.148h6.71Zm-7.81,3.278h8.822v-.836h-8.822ZM-3.619-6.93v-.264h2.068V-8.03H-6.765v.836h2.134v.264a3.361,3.361,0,0,1-2.42,3.08l.506.814a3.97,3.97,0,0,0,2.431-2.3A3.679,3.679,0,0,0-1.793-3.344l.484-.792A3.02,3.02,0,0,1-3.619-6.93ZM-5.753-.9C-5.753.231-4.532.9-2.519.9-.539.9.671.231.671-.9s-1.21-1.8-3.19-1.8C-4.532-2.706-5.753-2.046-5.753-.9Zm1.012,0c0-.638.825-.99,2.222-.99,1.375,0,2.189.352,2.2.99-.011.638-.825.99-2.2.99C-3.916.088-4.741-.264-4.741-.9ZM-.429-2.926H.583V-5.478H1.969v-.858H.583V-8.712H-.429ZM4.037-7.942c-1.254,0-2.068,1.3-2.068,3.388s.814,3.4,2.068,3.388c1.265.011,2.1-1.3,2.112-3.388C6.138-6.644,5.3-7.942,4.037-7.942ZM2.915-4.554c0-1.54.429-2.431,1.122-2.442.715.011,1.155.9,1.166,2.442-.011,1.529-.451,2.431-1.166,2.42C3.344-2.123,2.915-3.025,2.915-4.554ZM7.007.44h.968V-4.114H9.163V.9h.968V-8.712H9.163V-4.95H7.975V-8.536H7.007Zm9.042-8.58H15.015L12.507,1.166h1.034Zm9.834-.572H24.871V-1.65h1.012Zm-7.92,4.884.528.814a4.155,4.155,0,0,0,2.4-2.453A3.978,3.978,0,0,0,23.243-3.19L23.771-4a3.418,3.418,0,0,1-2.376-3.212v-.946H20.361v.946A3.637,3.637,0,0,1,17.963-3.828ZM19.591.7h6.578V-.11H20.6v-2.2H19.591ZM34.529-7.788H27.665v.836h5.852v.11a21.842,21.842,0,0,1-.374,4.378l1.012.11a21.622,21.622,0,0,0,.374-4.488ZM26.741-.4h8.778v-.836H31.1V-4.62H30.085v3.388H26.741Z" transform="translate(81.334 25)" fill="#fff"/>
  </g>
</svg>
